<svg width="65" height="65" viewBox="0 0 65 65" fill="none" xmlns="http://www.w3.org/2000/svg">
<path d="M61.2561 24.0826L62.2284 22.3285C62.4872 21.8615 62.3185 21.273 61.8514 21.0143C61.4625 20.7986 60.9905 20.8805 60.6936 21.1829C56.4562 8.60267 44.6238 0 31.1635 0C22.8394 0 15.0135 3.24152 9.12758 9.12758C3.24152 15.0136 0 22.8394 0 31.1635C0 38.2484 2.31725 44.9249 6.70102 50.471C10.9528 55.8502 16.9363 59.7273 23.5494 61.3881C24.9691 61.7447 26.4398 61.9655 28.0457 62.0631C28.0657 62.0643 28.0856 62.0649 28.1053 62.0649C28.6125 62.0649 29.0382 61.6698 29.0694 61.1567C29.1017 60.6237 28.6961 60.1656 28.163 60.1331C26.6779 60.0428 25.3228 59.8399 24.0204 59.5128C11.0161 56.2466 1.93362 44.5891 1.93362 31.1635C1.93362 15.0461 15.0461 1.93362 31.1635 1.93362C43.7494 1.93362 54.818 9.95156 58.824 21.69C58.4289 21.6204 58.0163 21.8025 57.8109 22.1728C57.5521 22.6397 57.7208 23.2283 58.1877 23.487L59.9146 24.4443C59.966 24.475 60.3008 24.6672 60.7052 24.5379C61.0583 24.4253 61.2216 24.1453 61.2561 24.0826Z" fill="#D3CDBF"/>
<path d="M47.6088 10.0969L10.2256 47.4802C9.84799 47.8579 9.84799 48.47 10.2256 48.8476C10.4143 49.0363 10.6618 49.1306 10.9092 49.1306C11.1565 49.1306 11.404 49.0363 11.5928 48.8476L48.976 11.4643C49.3536 11.0866 49.3536 10.4745 48.976 10.0969C48.5985 9.71964 47.9863 9.71964 47.6088 10.0969Z" fill="#D3CDBF"/>
<path d="M12.3724 16.4316C8.40898 16.4316 7.06228 21.5905 9.15213 21.5905C9.68581 21.5905 10.1189 21.158 10.1189 20.6237C10.1189 19.3812 11.1298 18.3704 12.3722 18.3704C14.4451 18.3704 15.4186 20.9548 13.8522 22.3231L8.51339 26.9882C7.84281 27.5742 8.25867 28.6829 9.14955 28.6829H15.5949C16.1289 28.6829 16.5618 28.2451 16.5618 27.7111C16.5618 27.177 16.1289 26.7443 15.5949 26.7443H11.7347L15.1277 23.7831C18.0316 21.2488 16.2404 16.4316 12.3724 16.4316Z" fill="#46525E"/>
<path d="M26.293 24.166H24.6865L24.6815 17.4C24.681 16.8663 24.2484 16.4341 23.7147 16.4341C23.181 16.4341 22.7479 16.8667 22.7479 17.4009V24.166H19.2799C19.2999 24.1085 20.8791 19.5735 20.8947 19.5147C21.2373 18.2104 19.4596 17.7455 19.0632 18.8877L17.003 24.8207C16.7851 25.4485 17.252 26.1046 17.9163 26.1046H22.7476C22.7474 27.7601 22.6646 28.0324 23.032 28.3996C23.6402 29.0082 24.6864 28.5721 24.6864 27.7135V26.1048H26.2929C26.8269 26.1048 27.2597 25.672 27.2597 25.1379C27.2598 24.5843 26.8144 24.166 26.293 24.166Z" fill="#46525E"/>
<path d="M41.9992 32.3542C41.8232 32.0696 41.5124 31.8965 41.1778 31.8965H35.2568C34.7234 31.8965 34.291 32.3288 34.291 32.8623C34.291 33.3957 34.7234 33.828 35.2568 33.828H39.6162L35.1624 42.7504C34.9242 43.2276 35.118 43.8076 35.5952 44.0458C35.7338 44.115 35.8808 44.1478 36.0257 44.1478C36.3802 44.1478 36.7216 43.9518 36.8906 43.6132L42.0418 33.2937C42.1914 32.9941 42.1753 32.6389 41.9992 32.3542Z" fill="#46525E"/>
<path d="M56.4998 27.3221C54.8349 27.6248 53.6257 29.0746 53.6257 30.7667V33.9454C53.6257 35.638 54.8361 37.0883 56.5013 37.391L56.8878 37.4612C55.1262 46.9177 47.8706 54.4657 38.5699 56.6551C38.3332 54.9199 36.8511 53.6261 35.0998 53.6261H30.9009C29.1497 53.6261 27.6677 54.9195 27.4312 56.6546C26.7431 61.7007 30.6239 65.2235 34.8462 64.9819C51.118 64.0511 64.1367 50.9962 64.9901 34.6873C65.2222 30.2497 61.3463 26.4409 56.4998 27.3221Z" fill="#6C7A88"/>
<path d="M34.8462 64.9816C51.1179 64.0508 64.1366 50.9959 64.99 34.687C65.0609 33.3316 64.747 32.0358 64.1409 30.9136C62.4899 31.283 61.2207 32.7136 61.128 34.4851C60.3764 48.8487 48.9827 60.2995 34.6253 61.1208C32.856 61.222 31.4337 62.4981 31.0702 64.1476C32.205 64.7558 33.5081 65.0582 34.8462 64.9816Z" fill="#596775"/>
</svg>
